{"title":"Hotel Transylvania 3 A Monster Vacation 2018 720p WEBDL x264 MW","magnet":"magnet:?xt=urn:btih:540be0b7a8fb3ddabb6be0041813f6c855f9abe8&dn=Hotel+Transylvania+3+A+Monster+Vacation+2018+720p+WEBDL+x264+MW&tr=udp%3A%2F%2Ftracker.leechers-paradise.org%3A6969&tr=udp%3A%2F%2Fzer0day.ch%3A1337&tr=udp%3A%2F%2Fopen.demonii.com%3A1337&tr=udp%3A%2F%2Ftracker.coppersurfer.tk%3A6969&tr=udp%3A%2F%2Fexodus.desync.com%3A6969","uploader":"MFreaky","categoryP":"video","categoryS":"hd___movies","size":"925312979","seeders":"6","leechers":"35","description":"Hotel Transylvania 3 A Monster Vacation 2018 720p WEB-DL x264 ESub [MW]\r\n <a href=\"\nhttps://pichub.site/image/ErYFT\" rel=\"nofollow\" target=\"_NEW\">\nhttps://pichub.site/image/ErYFT</a> <a href=\"\nhttps://pichub.site/image/ErMLV\" rel=\"nofollow\" target=\"_NEW\">\nhttps://pichub.site/image/ErMLV</a> <a href=\"\nhttps://pichub.site/image/ErIdN\" rel=\"nofollow\" target=\"_NEW\">\nhttps://pichub.site/image/ErIdN</a> <a href=\"\nhttps://pichub.site/image/ErOGD\" rel=\"nofollow\" target=\"_NEW\">\nhttps://pichub.site/image/ErOGD</a> <a href=\"\nhttps://pichub.site/image/ErDIg\" rel=\"nofollow\" target=\"_NEW\">\nhttps://pichub.site/image/ErDIg</a>\r\n\r\nIMDB <a href=\"\nhttps://www.imdb.com/title/tt5220122/\" rel=\"nofollow\" target=\"_NEW\">\nhttps://www.imdb.com/title/tt5220122/</a>\r\n\r\nVideo\r\nFormat                                   : AVC\r\nFormat/Info                              : Advanced Video Codec\r\nFormat profile                           : High@L4.1\r\nFormat settings                          : CABAC / 4 Ref Frames\r\nFormat settings, CABAC                   : Yes\r\nFormat settings, RefFrames               : 4 frames\r\nCodec ID                                 : V_MPEG4/ISO/AVC\r\nDuration                                 : 1 h 37 min\r\nBit rate                                 : 1 200 kb/s\r\nWidth                                    : 1 280 pixels\r\nHeight                                   : 688 pixels\r\nDisplay aspect ratio                     : 1.85:1\r\nFrame rate mode                          : Constant\r\nFrame rate                               : 23.976 (24000/1001) FPS\r\nColor space                              : YUV\r\nChroma subsampling                       : 4:2:0\r\nBit depth                                : 8 bits\r\nBits/(Pixel*Frame)                       : 0.057\r\nStream size                              : 815 MiB (92%)\r\nWriting library                          : x264 core 155 r2901 7d0ff22\r\n\r\nAudio\r\nFormat                                   : AAC\r\nFormat/Info                              : Advanced Audio Codec\r\nFormat profile                           : HE-AAC / LC\r\nFormat settings                          : Explicit\r\nCodec ID                                 : A_AAC-2\r\nDuration                                 : 1 h 37 min\r\nBit rate                                 : 96.0 kb/s\r\nChannel(s)                               : 2 channels\r\nChannel positions                        : Front: L R\r\nSampling rate                            : 48.0 kHz / 24.0 kHz\r\nFrame rate                               : 23.438 FPS (1024 SPF)\r\nStream size                              : 65.9 MiB (7%)\r\nLanguage                                 : English","last_updated":"2018-09-25T12:12:56.425Z","parsed":{"xt":"urn:btih:540be0b7a8fb3ddabb6be0041813f6c855f9abe8","dn":"Hotel Transylvania 3 A Monster Vacation 2018 720p WEBDL x264 MW","tr":["udp://exodus.desync.com:6969","udp://open.demonii.com:1337","udp://tracker.coppersurfer.tk:6969","udp://tracker.leechers-paradise.org:6969","udp://zer0day.ch:1337"],"infoHash":"540be0b7a8fb3ddabb6be0041813f6c855f9abe8","infoHashBuffer":{"type":"Buffer","data":[84,11,224,183,168,251,61,218,187,107,224,4,24,19,246,200,85,249,171,232]},"name":"Hotel Transylvania 3 A Monster Vacation 2018 720p WEBDL x264 MW","announce":["udp://exodus.desync.com:6969","udp://open.demonii.com:1337","udp://tracker.coppersurfer.tk:6969","udp://tracker.leechers-paradise.org:6969","udp://zer0day.ch:1337"],"urlList":[]}}